<?xml version="1.0" standalone="no"?><!DOCTYPE svg PUBLIC "-//W3C//DTD SVG 1.1//EN" "http://www.w3.org/Graphics/SVG/1.1/DTD/svg11.dtd"><svg class="icon" width="200px" height="193.39px" viewBox="0 0 1059 1024" version="1.1" xmlns="http://www.w3.org/2000/svg"><path fill="#1296db" d="M473.341414 748.606061h112.484849V616.210101h-112.484849V748.606061zM675.943434 72.662626H383.224242v66.19798h293.236364l-0.517172-66.19798z m132.39596 293.365657h-112.484849v132.395959h112.484849V366.028283z m0 247.466666h-112.484849v132.39596h112.484849V613.494949zM585.826263 366.028283h-112.484849v132.395959h112.484849V366.028283zM282.634343 194.456566c17.583838-0.258586 32.064646-14.222222 33.09899-31.806061V34.262626c-1.680808-16.808081-16.161616-29.608081-33.09899-29.090909-17.325253-0.517172-32.452525 11.894949-35.038383 29.090909v128.387879c1.939394 17.971717 17.066667 31.676768 35.038383 31.806061z m661.979798-121.79394h-66.197979v66.19798h48.355555c35.167677 3.10303 63.094949 31.030303 66.19798 66.19798v679.175757c-3.10303 35.167677-31.030303 63.094949-66.19798 66.19798H132.39596c-35.167677-3.10303-63.094949-31.030303-66.19798-66.19798V207.773737c3.10303-35.167677 31.030303-63.094949 66.19798-66.197979h44.993939V75.377778H111.191919c-60.638384 0.646465-109.769697 49.260606-111.191919 109.89899v724.169697c0 62.189899 50.424242 112.484848 112.484848 112.484848h834.068687c29.866667 0 58.440404-11.894949 79.515152-32.969697 21.074747-21.074747 32.969697-49.777778 32.969697-79.515151V185.276768c0-62.189899-50.424242-112.484848-112.484849-112.484849h-1.939394v-0.129293zM360.727273 613.494949H247.59596v132.39596h112.484848l0.646465-132.39596z m0-247.466666H247.59596v132.395959h112.484848l0.646465-132.395959z m417.745454-171.571717c17.583838-0.258586 32.064646-14.222222 33.09899-31.806061V34.262626c-1.680808-16.808081-16.161616-29.608081-33.09899-29.090909-17.325253-0.517172-32.452525 12.024242-35.038384 29.090909v128.387879c1.939394 17.971717 17.066667 31.676768 35.038384 31.806061z"  /></svg>