<?xml version="1.0" standalone="no"?><!DOCTYPE svg PUBLIC "-//W3C//DTD SVG 1.1//EN" "http://www.w3.org/Graphics/SVG/1.1/DTD/svg11.dtd"><svg class="icon" width="200px" height="200.00px" viewBox="0 0 1024 1024" version="1.1" xmlns="http://www.w3.org/2000/svg"><path fill="#1296db" d="M979.781818 518.981818L551.563636 46.545455c-11.636364-11.636364-23.272727-18.618182-39.563636-18.618182s-27.927273 6.981818-39.563636 18.618182L44.218182 518.981818c-16.290909 16.290909-18.618182 39.563636-11.636364 60.509091 9.309091 20.945455 27.927273 34.909091 48.872727 34.909091h93.09091v337.454545c0 23.272727 20.945455 44.218182 44.218181 44.218182h584.145455c25.6 0 44.218182-18.618182 44.218182-44.218182V614.4h90.763636c23.272727 0 41.890909-13.963636 48.872727-34.909091 11.636364-20.945455 6.981818-44.218182-6.981818-60.509091z m-100.072727 37.236364h-90.763636v379.345454H235.054545V556.218182H88.436364L512 88.436364l423.563636 467.781818h-55.854545z"  /></svg>