<?xml version="1.0" standalone="no"?><!DOCTYPE svg PUBLIC "-//W3C//DTD SVG 1.1//EN" "http://www.w3.org/Graphics/SVG/1.1/DTD/svg11.dtd"><svg class="icon" width="200px" height="200.00px" viewBox="0 0 1024 1024" version="1.1" xmlns="http://www.w3.org/2000/svg"><path fill="#1296db" d="M1011.090286 1024 973.531429 1024c0-119.04-52.571429-244.150857-144.219429-323.675429-11.446857-9.965714-46.025143-30.610286-58.441143-39.277714-27.245714-18.998857-67.218286-15.634286-120.996571 9.709714C608.804571 690.139429 562.249143 717.714286 512 717.714286c-50.285714 0-96.932571-21.814857-138.075429-41.033143-54.125714-25.325714-94.317714-39.862857-121.764571-20.571429-11.428571 8.027429-45.037714 33.536-55.606857 42.605714C103.734857 778.349714 50.505143 904.027429 50.505143 1024L12.928 1024c0-70.893714 15.378286-139.209143 45.696-203.099429 29.257143-61.604571 70.710857-115.712 123.245714-160.786286 12.178286-10.459429 25.014857-20.425143 38.180571-29.677714 27.812571-19.492571 59.282286-25.252571 96.292571-17.609143 28.672 5.888 57.526857 19.401143 85.430857 32.457143 36.644571 17.115429 74.550857 34.816 110.244571 34.816 35.529143 0 73.307429-17.828571 109.842286-35.035429 27.739429-13.110857 56.411429-26.642286 84.973714-32.676571 36.827429-7.753143 68.242286-2.102857 96 17.243429 14.281143 10.002286 28.269714 20.864 41.453714 32.329143 51.931429 45.037714 92.891429 98.925714 121.746286 160.219429C995.913143 885.686857 1011.090286 953.6 1011.090286 1024L1011.090286 1024zM512.036571 596.498286c-82.779429 0-160.676571-30.884571-219.337143-86.893714C233.654857 453.211429 201.142857 378.166857 201.142857 298.258286c0-79.926857 32.493714-155.008 91.556571-211.401143C351.36 30.866286 429.257143 0 512.036571 0s160.676571 30.866286 219.318857 86.857143c59.062857 56.393143 91.556571 131.456 91.556571 211.401143 0 79.908571-32.475429 154.971429-91.556571 211.364571C672.731429 565.613714 594.834286 596.498286 512.036571 596.498286L512.036571 596.498286zM512.036571 39.753143c-150.089143 0-272.201143 115.968-272.201143 258.505143 0 142.500571 122.112 258.468571 272.201143 258.468571 150.070857 0 272.182857-115.968 272.182857-258.468571C784.219429 155.721143 662.107429 39.753143 512.036571 39.753143L512.036571 39.753143z" /></svg>