<?xml version="1.0" standalone="no"?><!DOCTYPE svg PUBLIC "-//W3C//DTD SVG 1.1//EN" "http://www.w3.org/Graphics/SVG/1.1/DTD/svg11.dtd"><svg class="icon" width="200px" height="200.00px" viewBox="0 0 1024 1024" version="1.1" xmlns="http://www.w3.org/2000/svg"><path fill="#1296db" d="M818.24768 997.0176 241.59232 997.0176c-63.5904 0-115.33312-51.73248-115.33312-115.32288L126.2592 139.55584c0-63.5904 51.74272-115.33312 115.33312-115.33312l447.51872 0 244.46976 233.84064 0 623.63136C933.5808 945.28512 881.83808 997.0176 818.24768 997.0176zM241.59232 70.35904c-38.15936 0-69.20192 31.04256-69.20192 69.20192l0 742.13888c0 38.15424 31.04256 69.20192 69.20192 69.20192l576.65536 0c38.15936 0 69.20704-31.04256 69.20704-69.20192L887.45472 277.79584l-216.85248-207.44192L241.59232 70.35904 241.59232 70.35904zM346.8544 233.30304l366.13632 0c12.8512 0 23.22944 10.38336 23.22944 23.20384 0 12.82048-10.37824 23.22944-23.22944 23.22944L346.8544 279.73632c-12.84608 0-23.22944-10.40896-23.22944-23.22944C323.62496 243.6864 334.0032 233.30304 346.8544 233.30304zM346.8544 412.90752l366.13632 0c12.8512 0 23.22944 10.37824 23.22944 23.20384s-10.37824 23.22432-23.22944 23.22432L346.8544 459.33568c-12.84608 0-23.22944-10.39872-23.22944-23.22432S334.0032 412.90752 346.8544 412.90752zM346.8544 592.49152l366.13632 0c12.8512 0 23.22944 10.38336 23.22944 23.20384s-10.37824 23.22944-23.22944 23.22944L346.8544 638.9248c-12.84608 0-23.22944-10.40896-23.22944-23.22944S334.0032 592.49152 346.8544 592.49152zM346.8544 772.10112l366.13632 0c12.8512 0 23.22944 10.37824 23.22944 23.20896 0 12.81536-10.37824 23.22944-23.22944 23.22944L346.8544 818.53952c-12.84608 0-23.22944-10.41408-23.22944-23.22944C323.62496 782.47936 334.0032 772.10112 346.8544 772.10112z" /></svg>